<?xml version="1.0" standalone="no"?>
<!DOCTYPE svg PUBLIC "-//W3C//DTD SVG 20010904//EN"
 "http://www.w3.org/TR/2001/REC-SVG-20010904/DTD/svg10.dtd">
<svg version="1.0" xmlns="http://www.w3.org/2000/svg"
 width="500.000000pt" height="500.000000pt" viewBox="0 0 500.000000 500.000000"
 preserveAspectRatio="xMidYMid meet">
<metadata>
Created by potrace 1.14, written by Peter Selinger 2001-2017
</metadata>
<g transform="translate(0.000000,500.000000) scale(0.100000,-0.100000)"
fill="#000000" stroke="none">
<path d="M1110 4720 l0 -280 -502 1 c-277 0 -527 0 -555 -1 l-53 0 0 -2220 0
-2220 2500 0 2500 0 0 2220 0 2220 -47 0 c-27 1 -276 1 -555 1 l-508 0 0 279
0 280 -280 0 -281 0 3 -277 3 -278 225 -2 c124 -1 249 -2 278 -2 l52 -1 0
-277 0 -278 275 1 c151 0 276 -2 276 -5 1 -3 2 -752 3 -1663 l1 -1658 -30 -1
c-39 0 -3825 -1 -3846 0 -13 1 -15 167 -13 1659 1 911 2 1660 3 1663 1 3 117
5 259 5 141 -1 265 0 275 3 16 3 17 24 17 277 0 254 1 274 18 275 82 3 524 -1
531 -6 6 -3 9 -117 8 -275 -2 -234 0 -270 13 -271 42 -2 1636 -4 1645 -2 10 3
13 538 3 549 -3 3 -379 5 -834 5 l-829 0 3 279 2 280 -280 0 -280 0 0 -280z"/>
<path d="M2400 3400 l-175 -5 -2 -272 c-1 -249 0 -273 15 -274 20 -1 499 -1
524 0 16 1 17 23 17 275 l-1 275 -101 3 c-56 2 -181 1 -277 -2z"/>
<path d="M3445 3400 l-110 -5 0 -275 0 -275 270 2 c148 1 273 2 278 2 4 1 7
125 7 276 l0 274 -167 3 c-93 2 -217 1 -278 -2z"/>
<path d="M1110 3125 c0 -255 1 -275 18 -276 20 -1 512 -1 527 0 7 1 10 94 10
274 l0 272 -277 3 -277 2 -1 -275z"/>
<path d="M1111 2276 c-1 -253 0 -274 17 -277 14 -4 492 -3 527 0 7 1 10 96 10
276 l0 275 -277 0 -277 0 0 -274z"/>
<path d="M2222 2275 l-1 -275 22 -1 c28 -1 485 -1 513 0 21 1 22 3 22 276 l1
275 -279 0 -278 0 0 -275z"/>
<path d="M3334 2278 c0 -150 3 -275 7 -278 6 -4 481 -5 536 -1 9 1 12 70 12
276 l1 275 -278 0 -277 0 -1 -272z"/>
<path d="M1112 1399 c1 -160 6 -273 12 -276 7 -5 443 -8 526 -4 13 1 15 39 16
276 l0 274 -278 1 -278 0 2 -271z"/>
<path d="M2223 1392 l2 -277 277 0 276 -1 0 278 0 279 -278 -1 -279 -1 2 -277z"/>
<path d="M3335 1392 l0 -277 277 0 278 -1 -1 278 0 278 -277 -1 -278 0 1 -277z"/>
</g>
</svg>
